<?xml version="1.0" standalone="no"?>
<!DOCTYPE svg PUBLIC "-//W3C//DTD SVG 20010904//EN"
 "http://www.w3.org/TR/2001/REC-SVG-20010904/DTD/svg10.dtd">
<svg version="1.0" xmlns="http://www.w3.org/2000/svg"
 width="1024.000000pt" height="1024.000000pt" viewBox="0 0 1024.000000 1024.000000"
 preserveAspectRatio="xMidYMid meet">

<g transform="translate(0.000000,1024.000000) scale(0.100000,-0.100000)"
fill="#000000" stroke="none">
<path d="M4840 8439 c-347 -24 -586 -81 -988 -235 -206 -79 -305 -127 -512
-250 -190 -113 -286 -187 -452 -344 -241 -230 -353 -362 -531 -628 -111 -166
-172 -281 -255 -482 -124 -300 -185 -533 -234 -890 -17 -124 -17 -603 0 -730
77 -586 250 -1044 557 -1480 151 -214 449 -526 667 -699 183 -145 278 -207
483 -320 272 -148 383 -194 660 -270 387 -107 632 -138 1015 -128 215 6 235 8
450 51 379 75 581 145 920 316 615 312 1150 857 1446 1474 157 327 244 605
310 981 22 123 30 489 15 652 -30 329 -104 673 -188 883 -156 385 -160 394
-276 580 -184 293 -510 661 -727 821 -229 169 -391 274 -531 345 -123 62 -332
150 -429 182 -230 75 -597 152 -820 172 -131 11 -410 11 -580 -1z m683 -179
c359 -53 632 -132 976 -284 98 -43 361 -204 531 -326 122 -86 320 -269 435
-399 420 -476 644 -972 742 -1636 24 -168 24 -589 0 -765 -35 -251 -72 -401
-147 -611 -162 -447 -386 -808 -709 -1141 -307 -317 -634 -538 -1066 -721
-249 -105 -559 -187 -825 -218 -159 -18 -529 -15 -680 6 -553 76 -1067 274
-1443 556 -257 193 -465 387 -622 581 -80 100 -253 358 -324 486 -180 320
-296 676 -347 1067 -21 161 -29 537 -15 665 72 616 289 1158 641 1600 105 131
305 338 430 443 98 83 397 286 524 356 80 45 459 196 587 235 164 50 466 106
674 126 153 14 474 4 638 -20z"/>
<path d="M5141 7659 c-108 -65 -537 -292 -762 -405 -173 -86 -177 -88 -183
-123 -3 -20 -6 -278 -6 -574 l0 -539 -97 53 c-54 28 -127 71 -163 93 -150 96
-227 136 -261 136 -31 0 -46 -13 -179 -157 -80 -87 -292 -307 -472 -489 -181
-182 -328 -337 -328 -344 0 -51 123 -152 184 -152 l36 0 0 -477 0 -478 -37
-16 c-21 -9 -78 -23 -128 -32 -49 -9 -93 -19 -98 -22 -17 -10 57 -34 124 -40
43 -4 92 0 140 10 145 31 157 30 346 -8 187 -39 183 -39 411 -19 40 4 72 3 72
-2 -1 -13 -169 -110 -215 -123 -22 -7 -94 -16 -160 -21 -66 -5 -152 -17 -192
-27 -68 -15 -76 -15 -149 2 -150 35 -332 20 -375 -31 -21 -26 0 -28 75 -10 54
14 89 17 132 11 51 -6 171 -39 183 -50 2 -2 -38 -46 -89 -97 -51 -51 -88 -94
-82 -96 19 -6 76 30 134 85 81 76 158 109 286 122 56 6 123 11 148 11 l44 0
-24 -47 c-45 -88 -131 -202 -189 -251 -53 -45 -81 -60 -194 -107 -40 -17 -91
-60 -82 -69 3 -3 55 15 117 40 80 31 120 42 139 38 25 -7 25 -8 20 -70 -5 -53
-33 -152 -61 -216 -17 -39 16 -15 49 35 42 64 72 149 86 241 9 65 13 73 64
127 35 36 67 84 88 131 36 79 111 158 176 185 18 8 68 39 111 69 130 91 178
109 292 109 87 0 134 -10 100 -22 -7 -3 -37 -40 -67 -82 -102 -146 -203 -222
-329 -251 -55 -12 -106 -36 -106 -50 0 -14 65 -23 110 -16 77 12 206 58 257
91 56 37 150 127 253 243 61 69 68 74 120 82 30 4 111 31 180 59 115 46 210
72 210 58 0 -38 -121 -279 -179 -355 -37 -50 -128 -111 -295 -197 l-149 -77
-191 -15 c-120 -8 -208 -20 -236 -30 -69 -25 -270 -133 -270 -145 0 -7 24 -9
69 -6 55 4 87 14 162 51 l94 46 179 11 c99 6 183 13 188 16 4 3 8 1 8 -4 0
-11 -257 -264 -290 -284 -14 -9 -65 -21 -115 -27 -165 -21 -270 -63 -324 -128
-17 -20 -29 -38 -27 -40 1 -2 29 10 62 26 33 16 82 36 109 45 72 25 295 60
306 49 12 -12 -84 -200 -146 -290 -24 -34 -40 -63 -36 -63 5 0 31 18 59 39 75
60 147 162 188 271 35 91 41 99 128 183 50 48 142 121 203 163 62 42 115 80
119 85 16 26 18 -5 13 -148 -8 -199 -22 -242 -94 -293 -28 -19 -77 -63 -110
-97 -43 -45 -73 -67 -108 -79 -26 -9 -56 -27 -66 -40 -23 -30 -36 -93 -22
-107 8 -8 11 -4 11 14 0 14 6 32 13 40 12 16 82 59 95 59 4 0 7 -61 7 -135 0
-74 3 -131 6 -127 12 15 28 90 35 157 10 114 34 151 147 226 130 87 143 108
197 327 63 250 107 323 265 438 55 39 84 70 135 147 l65 96 3 -47 c5 -67 -18
-320 -33 -364 -7 -20 -50 -84 -96 -143 -46 -58 -98 -125 -114 -148 -33 -46
-119 -249 -130 -307 -9 -43 -25 -62 -95 -110 -105 -72 -150 -134 -150 -205 l0
-50 25 52 c41 88 182 218 215 198 13 -8 5 -65 -25 -175 -13 -47 -26 -106 -30
-131 -10 -79 16 -137 30 -67 4 18 23 83 42 143 19 61 46 170 58 244 29 166 60
235 144 314 33 31 64 57 69 57 10 0 37 -145 48 -251 6 -64 5 -71 -36 -160 -39
-84 -44 -105 -51 -199 -5 -58 -13 -133 -20 -167 -14 -80 -8 -98 19 -54 20 34
37 96 66 241 14 77 68 210 84 210 5 0 17 -18 27 -40 10 -22 24 -45 31 -51 24
-20 163 -294 177 -348 7 -29 17 -52 23 -52 5 0 13 19 17 43 7 38 2 61 -42 185
-56 160 -64 175 -128 274 -40 64 -47 81 -59 167 -15 107 -19 322 -6 322 5 0
18 -19 28 -42 32 -71 86 -148 174 -248 115 -131 166 -202 184 -258 8 -26 34
-130 57 -232 23 -102 45 -194 50 -205 14 -37 9 217 -6 290 -8 38 -15 90 -15
114 l0 44 34 -6 c50 -8 108 -51 142 -104 16 -26 67 -85 114 -132 74 -74 85
-82 88 -63 2 13 -8 38 -26 60 -16 20 -50 69 -77 107 -71 105 -103 134 -182
172 -97 45 -129 75 -219 204 -89 129 -132 212 -176 335 -30 86 -31 95 -36 288
-2 110 0 202 5 207 5 5 43 -34 91 -96 47 -60 113 -129 152 -160 71 -57 125
-121 175 -209 25 -42 29 -64 36 -165 13 -192 48 -286 125 -335 25 -16 47 -27
49 -24 2 2 -11 23 -30 47 -42 52 -49 85 -50 221 0 99 1 105 20 102 11 -2 70
-55 130 -119 l111 -117 18 -78 c14 -65 15 -84 5 -112 -10 -28 -9 -44 6 -97 20
-74 41 -119 55 -119 13 0 13 10 -5 60 -15 41 -21 120 -9 120 8 0 92 -58 140
-97 23 -18 44 -33 48 -33 19 0 -40 83 -91 126 -32 27 -63 56 -70 64 -15 19
-31 75 -39 134 -7 45 -6 46 21 46 16 0 54 -6 84 -14 31 -8 78 -20 104 -27 43
-11 73 -36 88 -74 29 -74 122 -205 136 -192 1 2 -22 58 -52 126 -30 67 -55
124 -55 126 0 14 210 -45 238 -67 8 -7 12 -7 12 0 0 19 -107 93 -156 108 -26
8 -73 14 -106 14 -39 0 -86 10 -146 31 -48 17 -116 40 -152 51 -54 17 -73 29
-120 80 -30 33 -89 95 -131 138 -65 67 -81 91 -118 175 -23 54 -40 99 -38 101
4 4 437 -103 471 -117 18 -8 47 -42 82 -94 91 -138 159 -205 210 -205 15 0 15
2 0 23 -8 12 -50 78 -93 145 -43 68 -92 141 -110 162 -35 41 -44 44 -356 135
-87 25 -179 56 -205 69 -88 45 -270 255 -296 342 -6 19 -2 22 41 27 39 4 66
-2 148 -32 55 -21 160 -57 233 -80 l133 -42 104 -99 c120 -114 148 -131 271
-160 110 -27 156 -53 215 -122 68 -79 77 -97 88 -173 6 -38 13 -84 16 -102 4
-20 32 -63 75 -113 43 -51 78 -105 93 -144 l25 -61 -2 51 c-2 38 -13 70 -45
128 -32 59 -47 102 -62 179 -11 55 -18 106 -15 113 8 21 122 -15 200 -64 21
-13 59 -30 85 -38 71 -21 110 -50 131 -97 10 -23 19 -35 19 -27 1 34 -38 99
-71 116 l-33 17 35 10 c36 9 99 5 135 -8 20 -8 20 -7 0 14 -17 18 -34 22 -96
24 -65 2 -82 6 -120 32 -24 17 -98 57 -164 91 -103 52 -126 68 -160 114 -46
59 -164 134 -315 200 -124 53 -130 58 -218 142 l-80 76 71 7 c40 4 142 8 227
8 l155 2 65 -37 c36 -20 99 -61 140 -92 112 -84 217 -132 329 -150 84 -14 100
-20 149 -58 118 -93 182 -137 182 -128 0 21 -79 117 -123 150 -26 19 -47 38
-47 41 0 4 32 15 71 24 67 17 74 17 127 1 33 -10 78 -16 107 -14 l50 4 -45 21
c-79 37 -154 45 -256 27 -122 -22 -145 -20 -228 20 -69 33 -256 162 -256 176
0 4 45 17 100 29 227 48 294 50 366 12 59 -32 139 -44 237 -37 82 5 166 30
180 52 3 5 -50 9 -117 10 -106 1 -129 4 -181 26 -281 119 -277 118 -517 118
l-168 0 -2 98 c-1 53 -2 706 -2 1450 l-1 1353 -305 115 c-168 63 -381 142
-475 176 -93 33 -271 100 -395 148 -124 48 -234 90 -245 93 -13 4 -48 -11
-104 -44z m609 -753 l85 -21 3 -168 c2 -157 1 -168 -15 -163 -10 3 -69 6 -130
8 l-113 3 0 187 0 186 43 -5 c23 -3 80 -15 127 -27z m-680 -161 c0 -96 -3
-175 -7 -175 -13 0 -175 -29 -192 -35 -14 -4 -16 13 -16 161 l0 165 65 19 c76
23 132 38 143 39 4 1 7 -78 7 -174z m1270 56 c36 -9 64 -19 63 -23 -2 -5 -3
-81 -3 -171 l0 -164 -120 31 -120 30 0 164 0 163 58 -7 c31 -4 86 -14 122 -23z
m-1710 -167 l-5 -159 -40 -19 c-22 -10 -64 -29 -92 -42 l-53 -24 0 173 0 173
93 30 c50 17 94 30 97 29 3 -2 3 -74 0 -161z m448 -556 l-3 -162 -98 -29 c-54
-16 -100 -27 -102 -25 -2 1 -5 77 -6 167 l-3 164 24 10 c42 17 123 35 158 36
l32 1 -2 -162z m750 141 c22 -8 22 -11 22 -185 l0 -176 -27 6 c-16 3 -75 10
-133 16 -57 7 -108 14 -112 16 -10 7 -11 328 0 338 9 10 218 -3 250 -15z m522
-92 l50 -12 5 -187 c3 -104 2 -188 -2 -188 -13 0 -185 47 -215 59 l-28 11 0
171 0 171 70 -7 c38 -4 92 -12 120 -18z m-2405 -369 c141 -144 293 -303 337
-353 l81 -90 -2 -500 c-2 -320 -6 -504 -12 -512 -13 -15 -59 -21 -241 -28
l-148 -6 0 224 c0 123 -3 313 -7 422 l-6 198 -258 -6 c-142 -3 -262 -8 -267
-11 -6 -4 -8 -160 -5 -421 l5 -415 -104 0 c-56 -1 -138 -1 -181 -2 -42 -1 -79
1 -82 3 -2 3 -5 254 -5 558 l-1 552 172 182 c220 232 452 467 460 467 4 0 123
-118 264 -262z m1769 -188 c129 -16 126 -13 127 -123 0 -51 4 -123 8 -162 5
-38 8 -71 7 -71 -1 -1 -218 33 -262 42 -30 5 -35 42 -27 200 l6 135 26 -5 c14
-3 66 -10 115 -16z m578 -129 c59 -9 110 -20 113 -23 6 -5 -15 -300 -21 -307
-4 -4 -216 37 -221 43 -2 1 -5 233 -4 284 1 26 -3 26 133 3z m-522 -544 l65
-12 3 -169 2 -169 -82 7 c-46 4 -109 9 -140 13 l-58 6 0 174 0 175 73 -7 c39
-3 101 -12 137 -18z m505 -42 c139 -11 125 9 125 -175 l0 -160 -57 0 c-32 0
-88 3 -124 6 l-66 7 -7 158 c-4 87 -4 163 -1 170 4 6 17 8 29 5 11 -3 57 -8
101 -11z"/>
<path d="M6810 3660 c-11 -7 -7 -10 17 -10 37 0 84 -19 96 -37 4 -7 13 -13 19
-13 7 0 -3 16 -22 35 -35 36 -78 46 -110 25z"/>
<path d="M6715 3640 c3 -5 15 -10 26 -10 10 0 19 5 19 10 0 6 -12 10 -26 10
-14 0 -23 -4 -19 -10z"/>
</g>
</svg>
